<svg xmlns:dc="http://purl.org/dc/elements/1.1/" xmlns:cc="http://creativecommons.org/ns#" xmlns:rdf="http://www.w3.org/1999/02/22-rdf-syntax-ns#" xmlns:svg="http://www.w3.org/2000/svg" xmlns="http://www.w3.org/2000/svg" xmlns:xlink="http://www.w3.org/1999/xlink" id="svg649253" viewBox="0 0 1024 768" height="768px" width="1024px" version="1.1">
  <metadata id="metadata649259">
    <rdf:rdf>
      <cc:work rdf:about="">
        <dc:format>image/svg+xml</dc:format>
        <dc:type rdf:resource="http://purl.org/dc/dcmitype/StillImage"></dc:type>
      </cc:work>
    </rdf:rdf>
  </metadata>
  <defs id="defs649257"></defs>
  <linearGradient spreadMethod="pad" y2="30%" x2="-10%" y1="120%" x1="30%" id="3d_gradient2-logo-f0f87123-67db-4beb-9a03-b90672b89cd9">
    <stop id="stop649234" stop-opacity="1" stop-color="#ffffff" offset="0%"></stop>
    <stop id="stop649236" stop-opacity="1" stop-color="#000000" offset="100%"></stop>
  </linearGradient>
  <linearGradient gradientTransform="rotate(-30)" spreadMethod="pad" y2="30%" x2="-10%" y1="120%" x1="30%" id="3d_gradient3-logo-f0f87123-67db-4beb-9a03-b90672b89cd9">
    <stop id="stop649239" stop-opacity="1" stop-color="#ffffff" offset="0%"></stop>
    <stop id="stop649241" stop-opacity="1" stop-color="#cccccc" offset="50%"></stop>
    <stop id="stop649243" stop-opacity="1" stop-color="#000000" offset="100%"></stop>
  </linearGradient>
  <g id="logo-group">
    <image xlink:href="" id="container" x="272" y="144" width="480" height="480" style="display: none;" transform="translate(0 0)"></image>
    <g id="logo-center" transform="translate(1.7053025658242404e-13 0)">
      <image xlink:href="" id="icon_container" x="0" y="0" style="display: none;"></image>
      <g id="slogan" style="font-style:normal;font-weight:400;font-size:32px;line-height:1;font-family:Arvo;font-variant-ligatures:none;text-align:center;text-anchor:middle" transform="translate(0 0)">
        <path id="path649261" style="font-style:normal;font-weight:400;font-size:32px;line-height:1;font-family:Arvo;font-variant-ligatures:none;text-align:center;text-anchor:middle" d="m 287.73437,-23.6875 h 7.6875 v 2.703125 h -2.25 l 4.45313,7.609375 4.76562,-7.609375 h -2.46875 V -23.6875 h 7.6875 v 2.703125 h -2.01562 l -6.65625,10.09375 V -2.6875 h 2.4375 V 0 h -7.6875 v -2.6875 h 2.17187 v -8.28125 l -6.28125,-10.015625 h -1.84375 z" stroke-width="0" stroke-linejoin="miter" stroke-miterlimit="2" fill="#5200bc" stroke="#5200bc" transform="translate(-2.8421709430404007e-13 353.53525947500003) translate(335.1757812500001 56.546875) scale(0.75) translate(-287.73437 23.6875)"></path>
        <path id="path649263" style="font-style:normal;font-weight:400;font-size:32px;line-height:1;font-family:Arvo;font-variant-ligatures:none;text-align:center;text-anchor:middle" d="m 309.46875,-8.09375 q 0.0156,-1.921875 0.60937,-3.5 0.60938,-1.578125 1.6875,-2.703125 1.07813,-1.140625 2.5625,-1.75 1.48438,-0.609375 3.26563,-0.609375 1.79687,0 3.28125,0.609375 1.5,0.609375 2.5625,1.734375 1.0625,1.109375 1.65625,2.6875 0.59375,1.578125 0.59375,3.5 0,1.890625 -0.59375,3.484375 -0.59375,1.578125 -1.65625,2.71875 -1.0625,1.140625 -2.5625,1.78125 -1.48438,0.625 -3.28125,0.625 -1.82813,0 -3.3125,-0.625 -1.48438,-0.625 -2.54688,-1.75 -1.0625,-1.140625 -1.65625,-2.71875 -0.59375,-1.578125 -0.60937,-3.484375 z m 3.07812,0 q 0,1.390625 0.39063,2.515625 0.40625,1.125 1.09375,1.921875 0.70312,0.78125 1.60937,1.21875 0.92188,0.421875 1.95313,0.421875 1.07812,0 2,-0.421875 0.9375,-0.421875 1.625,-1.203125 0.6875,-0.796875 1.07812,-1.921875 0.39063,-1.125 0.39063,-2.53125 0,-1.46875 -0.39063,-2.609375 -0.39062,-1.140625 -1.07812,-1.90625 -0.67188,-0.765625 -1.60938,-1.15625 -0.9375,-0.390625 -2.01562,-0.390625 -1.03125,0 -1.95313,0.390625 -0.90625,0.390625 -1.60937,1.15625 -0.6875,0.765625 -1.09375,1.90625 -0.39063,1.140625 -0.39063,2.609375 z" stroke-width="0" stroke-linejoin="miter" stroke-miterlimit="2" fill="#5200bc" stroke="#5200bc" transform="translate(-2.8421709430404007e-13 353.53525947500003) translate(352.22656625000013 61.8203125) scale(0.75) translate(-309.46875 16.65625)"></path>
        <path id="path649265" style="font-style:normal;font-weight:400;font-size:32px;line-height:1;font-family:Arvo;font-variant-ligatures:none;text-align:center;text-anchor:middle" d="m 338.5625,-16.1875 h 5.21875 v 13.5 h 1.79687 V 0 h -4.71875 v -1.5 q -1.09375,0.84375 -2.39062,1.3125 -1.28125,0.46875 -2.75,0.46875 -1.21875,0 -2.21875,-0.34375 -0.98438,-0.359375 -1.6875,-1.09375 -0.6875,-0.75 -1.0625,-1.890625 -0.375,-1.140625 -0.375,-2.71875 V -13.5 h -2.1875 v -2.6875 h 5.21875 v 10.078125 q 0,1.859375 0.85937,2.8125 0.85938,0.953125 2.46875,0.953125 0.95313,0 2,-0.34375 1.0625,-0.34375 2,-0.953125 V -13.5 h -2.17187 z" stroke-width="0" stroke-linejoin="miter" stroke-miterlimit="2" fill="#5200bc" stroke="#5200bc" transform="translate(-2.8421709430404007e-13 353.53525947500003) translate(367.01562875000013 62.171875) scale(0.75) translate(-328.1875 16.1875)"></path>
        <path id="path649267" style="font-style:normal;font-weight:400;font-size:32px;line-height:1;font-family:Arvo;font-variant-ligatures:none;text-align:center;text-anchor:middle" d="m 361.57812,-12.765625 h -2.96875 v -1 q -0.51562,0 -1.0625,0.203125 -0.53125,0.1875 -1,0.59375 -0.46875,0.390625 -0.82812,1.015625 -0.34375,0.609375 -0.5,1.453125 v 7.8125 h 2.75 V 0 h -8.03125 v -2.6875 h 2.23437 L 352.1875,-13.5 h -2.25 v -2.6875 h 5.17187 v 2.234375 q 0.28125,-0.5 0.625,-0.921875 0.35938,-0.4375 0.78125,-0.75 0.4375,-0.328125 0.95313,-0.5 0.53125,-0.1875 1.14062,-0.1875 0.8125,0 1.53125,0 0.71875,0 1.4375,0.03125 z" stroke-width="0" stroke-linejoin="miter" stroke-miterlimit="2" fill="#5200bc" stroke="#5200bc" transform="translate(-2.8421709430404007e-13 353.53525947500003) translate(384.07812875000013 62.078125) scale(0.75) translate(-349.9375 16.3125)"></path>
        <path id="path649271" style="font-style:normal;font-weight:400;font-size:32px;line-height:1;font-family:Arvo;font-variant-ligatures:none;text-align:center;text-anchor:middle" d="m 371.71875,-8.09375 q 0.0156,-1.921875 0.60937,-3.5 0.60938,-1.578125 1.6875,-2.703125 1.07813,-1.140625 2.5625,-1.75 1.48438,-0.609375 3.26563,-0.609375 1.79687,0 3.28125,0.609375 1.5,0.609375 2.5625,1.734375 1.0625,1.109375 1.65625,2.6875 0.59375,1.578125 0.59375,3.5 0,1.890625 -0.59375,3.484375 -0.59375,1.578125 -1.65625,2.71875 -1.0625,1.140625 -2.5625,1.78125 -1.48438,0.625 -3.28125,0.625 -1.82813,0 -3.3125,-0.625 -1.48438,-0.625 -2.54688,-1.75 -1.0625,-1.140625 -1.65625,-2.71875 -0.59375,-1.578125 -0.60937,-3.484375 z m 3.07812,0 q 0,1.390625 0.39063,2.515625 0.40625,1.125 1.09375,1.921875 0.70312,0.78125 1.60937,1.21875 0.92188,0.421875 1.95313,0.421875 1.07812,0 2,-0.421875 0.9375,-0.421875 1.625,-1.203125 0.6875,-0.796875 1.07812,-1.921875 0.39063,-1.125 0.39063,-2.53125 0,-1.46875 -0.39063,-2.609375 -0.39062,-1.140625 -1.07812,-1.90625 -0.67188,-0.765625 -1.60938,-1.15625 -0.9375,-0.390625 -2.01562,-0.390625 -1.03125,0 -1.95313,0.390625 -0.90625,0.390625 -1.60937,1.15625 -0.6875,0.765625 -1.09375,1.90625 -0.39063,1.140625 -0.39063,2.609375 z" stroke-width="0" stroke-linejoin="miter" stroke-miterlimit="2" fill="#5200bc" stroke="#5200bc" transform="translate(-2.8421709430404007e-13 353.53525947500003) translate(401.16406625000013 61.8203125) scale(0.75) translate(-371.71875 16.65625)"></path>
        <path id="path649273" style="font-style:normal;font-weight:400;font-size:32px;line-height:1;font-family:Arvo;font-variant-ligatures:none;text-align:center;text-anchor:middle" d="M 401.71875,-2.6875 H 404 v -7.390625 q 0,-1.859375 -0.95313,-2.8125 -0.9375,-0.96875 -2.70312,-0.96875 -1.01563,0 -2.04688,0.484375 -1.03125,0.484375 -1.95312,1.203125 V -2.6875 H 398.625 V 0 h -7.5625 v -2.6875 h 2.25 V -13.5 h -2.25 v -2.6875 h 5.15625 v 1.90625 h 0.0312 q 0.51562,-0.453125 1.09375,-0.859375 0.59375,-0.40625 1.23437,-0.703125 0.64063,-0.296875 1.32813,-0.46875 0.70312,-0.171875 1.46875,-0.171875 1.29687,0 2.34375,0.359375 1.04687,0.359375 1.78125,1.09375 0.73437,0.734375 1.125,1.890625 0.40625,1.140625 0.40625,2.703125 v 7.75 h 2.25 V 0 h -7.5625 z" stroke-width="0" stroke-linejoin="miter" stroke-miterlimit="2" fill="#5200bc" stroke="#5200bc" transform="translate(-2.8421709430404007e-13 353.53525947500003) translate(416.42187875000013 61.94921875) scale(0.75) translate(-391.0625 16.484375)"></path>
        <path id="path649275" style="font-style:normal;font-weight:400;font-size:32px;line-height:1;font-family:Arvo;font-variant-ligatures:none;text-align:center;text-anchor:middle" d="m 412.3125,-24.3125 h 5.25 v 21.625 H 420 V 0 h -7.6875 v -2.6875 h 2.34375 V -21.625 h -2.34375 z" stroke-width="0" stroke-linejoin="miter" stroke-miterlimit="2" fill="#5200bc" stroke="#5200bc" transform="translate(-2.8421709430404007e-13 353.53525947500003) translate(433.10937875000013 56.078125) scale(0.75) translate(-412.3125 24.3125)"></path>
        <path id="path649277" style="font-style:normal;font-weight:400;font-size:32px;line-height:1;font-family:Arvo;font-variant-ligatures:none;text-align:center;text-anchor:middle" d="m 422.75,-16.1875 h 5.28125 v 13.5 h 2.4375 V 0 h -7.6875 v -2.6875 h 2.3125 V -13.5 H 422.75 Z m 1.79687,-5.734375 q 0,-0.40625 0.15625,-0.765625 0.17188,-0.375 0.4375,-0.640625 0.28125,-0.28125 0.65625,-0.4375 0.375,-0.171875 0.79688,-0.171875 0.40625,0 0.76562,0.171875 0.375,0.15625 0.64063,0.4375 0.28125,0.265625 0.4375,0.640625 0.17187,0.359375 0.17187,0.765625 0,0.421875 -0.17187,0.796875 -0.15625,0.375 -0.4375,0.671875 -0.26563,0.28125 -0.64063,0.453125 -0.35937,0.15625 -0.76562,0.15625 -0.42188,0 -0.79688,-0.15625 -0.375,-0.171875 -0.65625,-0.453125 -0.26562,-0.296875 -0.4375,-0.671875 -0.15625,-0.375 -0.15625,-0.796875 z" stroke-width="0" stroke-linejoin="miter" stroke-miterlimit="2" fill="#5200bc" stroke="#5200bc" transform="translate(-2.8421709430404007e-13 353.53525947500003) translate(441.68750375000013 56.359375) scale(0.75) translate(-422.75 23.9375)"></path>
        <path id="path649279" style="font-style:normal;font-weight:400;font-size:32px;line-height:1;font-family:Arvo;font-variant-ligatures:none;text-align:center;text-anchor:middle" d="m 443.78125,-2.6875 h 2.28125 v -7.390625 q 0,-1.859375 -0.95313,-2.8125 -0.9375,-0.96875 -2.70312,-0.96875 -1.01563,0 -2.04688,0.484375 -1.03125,0.484375 -1.95312,1.203125 V -2.6875 h 2.28125 V 0 h -7.5625 v -2.6875 h 2.25 V -13.5 h -2.25 v -2.6875 h 5.15625 v 1.90625 h 0.0312 q 0.51562,-0.453125 1.09375,-0.859375 0.59375,-0.40625 1.23437,-0.703125 0.64063,-0.296875 1.32813,-0.46875 0.70312,-0.171875 1.46875,-0.171875 1.29687,0 2.34375,0.359375 1.04687,0.359375 1.78125,1.09375 0.73437,0.734375 1.125,1.890625 0.40625,1.140625 0.40625,2.703125 v 7.75 h 2.25 V 0 h -7.5625 z" stroke-width="0" stroke-linejoin="miter" stroke-miterlimit="2" fill="#5200bc" stroke="#5200bc" transform="translate(-2.8421709430404007e-13 353.53525947500003) translate(450.21875375000013 61.94921875) scale(0.75) translate(-433.125 16.484375)"></path>
        <path id="path649281" style="font-style:normal;font-weight:400;font-size:32px;line-height:1;font-family:Arvo;font-variant-ligatures:none;text-align:center;text-anchor:middle" d="m 457.25,-7.71875 q 0,0.6875 0.0937,1.265625 0.10937,0.5625 0.29687,1.078125 0.57813,1.5625 1.84375,2.359375 1.28125,0.78125 2.89063,0.78125 1.26562,0 2.45312,-0.34375 1.20313,-0.359375 2.51563,-1.109375 l 1.17187,1.984375 q -1.59375,1.09375 -3.20312,1.625 -1.60938,0.53125 -3.34375,0.53125 -1.64063,0 -3.04688,-0.546875 -1.39062,-0.546875 -2.40625,-1.625 -1,-1.078125 -1.57812,-2.6875 -0.5625,-1.609375 -0.5625,-3.75 0,-1.734375 0.48437,-3.265625 0.48438,-1.546875 1.4375,-2.6875 0.96875,-1.15625 2.39063,-1.828125 1.42187,-0.671875 3.3125,-0.671875 1.82812,0 3.04687,0.5625 1.23438,0.546875 2,1.46875 0.78125,0.90625 1.17188,2.078125 0.40625,1.171875 0.5625,2.390625 0.0781,0.59375 0.0937,1.203125 0.0312,0.609375 0.0312,1.1875 z m 4.54687,-6.453125 q -1.01562,0 -1.78125,0.296875 -0.75,0.28125 -1.28125,0.828125 -0.53125,0.53125 -0.85937,1.3125 -0.3125,0.78125 -0.46875,1.75 h 8.39062 q -0.0625,-0.90625 -0.29687,-1.671875 -0.21875,-0.765625 -0.6875,-1.328125 -0.46875,-0.5625 -1.20313,-0.875 -0.73437,-0.3125 -1.8125,-0.3125 z" stroke-width="0" stroke-linejoin="miter" stroke-miterlimit="2" fill="#5200bc" stroke="#5200bc" transform="translate(-2.8421709430404007e-13 353.53525947500003) translate(466.9062162500001 61.85546875) scale(0.75) translate(-454.37495 16.609375)"></path>
        <path id="path649285" style="font-style:normal;font-weight:400;font-size:32px;line-height:1;font-family:Arvo;font-variant-ligatures:none;text-align:center;text-anchor:middle" d="M 479.75,-24.3125 H 485 v 21.625 h 2.4375 V 0 H 479.75 v -2.6875 h 2.34375 V -21.625 H 479.75 Z" stroke-width="0" stroke-linejoin="miter" stroke-miterlimit="2" fill="#5200bc" stroke="#5200bc" transform="translate(-2.8421709430404007e-13 353.53525947500003) translate(486.68750375000013 56.078125) scale(0.75) translate(-479.75 24.3125)"></path>
        <path id="path649287" style="font-style:normal;font-weight:400;font-size:32px;line-height:1;font-family:Arvo;font-variant-ligatures:none;text-align:center;text-anchor:middle" d="m 493.0625,-7.71875 q 0,0.6875 0.0937,1.265625 0.10937,0.5625 0.29687,1.078125 0.57813,1.5625 1.84375,2.359375 1.28125,0.78125 2.89063,0.78125 1.26562,0 2.45312,-0.34375 1.20313,-0.359375 2.51563,-1.109375 l 1.17187,1.984375 q -1.59375,1.09375 -3.20312,1.625 -1.60938,0.53125 -3.34375,0.53125 -1.64063,0 -3.04688,-0.546875 -1.39062,-0.546875 -2.40625,-1.625 -1,-1.078125 -1.57812,-2.6875 -0.5625,-1.609375 -0.5625,-3.75 0,-1.734375 0.48437,-3.265625 0.48438,-1.546875 1.4375,-2.6875 0.96875,-1.15625 2.39063,-1.828125 1.42187,-0.671875 3.3125,-0.671875 1.82812,0 3.04687,0.5625 1.23438,0.546875 2,1.46875 0.78125,0.90625 1.17188,2.078125 0.40625,1.171875 0.5625,2.390625 0.0781,0.59375 0.0937,1.203125 0.0312,0.609375 0.0312,1.1875 z m 4.54687,-6.453125 q -1.01562,0 -1.78125,0.296875 -0.75,0.28125 -1.28125,0.828125 -0.53125,0.53125 -0.85937,1.3125 -0.3125,0.78125 -0.46875,1.75 h 8.39062 q -0.0625,-0.90625 -0.29687,-1.671875 -0.21875,-0.765625 -0.6875,-1.328125 -0.46875,-0.5625 -1.20313,-0.875 -0.73437,-0.3125 -1.8125,-0.3125 z" stroke-width="0" stroke-linejoin="miter" stroke-miterlimit="2" fill="#5200bc" stroke="#5200bc" transform="translate(-2.8421709430404007e-13 353.53525947500003) translate(495.26559125000017 61.85546875) scale(0.75) translate(-490.18745 16.609375)"></path>
        <path id="path649289" style="font-style:normal;font-weight:400;font-size:32px;line-height:1;font-family:Arvo;font-variant-ligatures:none;text-align:center;text-anchor:middle" d="m 518.20312,-1.5 q -0.92187,0.859375 -2.04687,1.40625 -1.10938,0.546875 -2.53125,0.546875 -1.1875,0 -2.1875,-0.375 -0.98438,-0.375 -1.70313,-1.015625 -0.71875,-0.65625 -1.125,-1.515625 -0.39062,-0.859375 -0.39062,-1.828125 0,-1.03125 0.29687,-1.828125 0.3125,-0.796875 0.8125,-1.375 0.51563,-0.59375 1.1875,-0.984375 0.6875,-0.40625 1.42188,-0.640625 0.75,-0.25 1.51562,-0.34375 0.78125,-0.109375 1.48438,-0.109375 1.125,0 1.89062,0.078125 0.76563,0.0625 1.39063,0.1875 l 0.0156,-1.328125 q 0,-0.859375 -0.25,-1.484375 -0.25,-0.640625 -0.70312,-1.046875 -0.45313,-0.421875 -1.09375,-0.625 -0.625,-0.203125 -1.40625,-0.203125 -0.73438,0 -1.40625,0.109375 -0.67188,0.09375 -1.26563,0.265625 -0.57812,0.15625 -1.07812,0.375 -0.48438,0.203125 -0.82813,0.4375 L 509.25,-14.8125 q 0.57812,-0.375 1.26562,-0.6875 0.6875,-0.328125 1.4375,-0.546875 0.76563,-0.234375 1.54688,-0.359375 0.79687,-0.140625 1.5625,-0.140625 1.40625,0 2.53125,0.34375 1.125,0.328125 1.90625,1.03125 0.78125,0.703125 1.20312,1.796875 0.42188,1.078125 0.42188,2.59375 l -0.0156,8.09375 h 1.79688 V 0 h -4.70313 z m -3.9375,-0.484375 q 0.57813,0 1.15625,-0.140625 0.57813,-0.140625 1.09375,-0.375 0.51563,-0.25 0.95313,-0.5625 0.4375,-0.328125 0.73437,-0.671875 l 0.0156,-3.65625 h -3.375 q -0.84375,0 -1.54688,0.1875 -0.6875,0.1875 -1.20312,0.546875 -0.5,0.359375 -0.78125,0.890625 -0.28125,0.53125 -0.28125,1.21875 0,0.640625 0.23437,1.125 0.23438,0.46875 0.65625,0.796875 0.4375,0.3125 1.03125,0.484375 0.59375,0.15625 1.3125,0.15625 z" stroke-width="0" stroke-linejoin="miter" stroke-miterlimit="2" fill="#5200bc" stroke="#5200bc" transform="translate(-2.8421709430404007e-13 353.53525947500003) translate(509.53906625000013 61.90234375) scale(0.75) translate(-508.21875 16.546875)"></path>
        <path id="path649291" style="font-style:normal;font-weight:400;font-size:32px;line-height:1;font-family:Arvo;font-variant-ligatures:none;text-align:center;text-anchor:middle" d="m 537.82812,-12.765625 h -2.96875 v -1 q -0.51562,0 -1.0625,0.203125 -0.53125,0.1875 -1,0.59375 -0.46875,0.390625 -0.82812,1.015625 -0.34375,0.609375 -0.5,1.453125 v 7.8125 h 2.75 V 0 h -8.03125 v -2.6875 h 2.23437 L 528.4375,-13.5 h -2.25 v -2.6875 h 5.17187 v 2.234375 q 0.28125,-0.5 0.625,-0.921875 0.35938,-0.4375 0.78125,-0.75 0.4375,-0.328125 0.95313,-0.5 0.53125,-0.1875 1.14062,-0.1875 0.8125,0 1.53125,0 0.71875,0 1.4375,0.03125 z" stroke-width="0" stroke-linejoin="miter" stroke-miterlimit="2" fill="#5200bc" stroke="#5200bc" transform="translate(-2.8421709430404007e-13 353.53525947500003) translate(523.7656287500001 62.078125) scale(0.75) translate(-526.1875 16.3125)"></path>
        <path id="path649293" style="font-style:normal;font-weight:400;font-size:32px;line-height:1;font-family:Arvo;font-variant-ligatures:none;text-align:center;text-anchor:middle" d="m 551.84375,-2.6875 h 2.28125 v -7.390625 q 0,-1.859375 -0.95313,-2.8125 -0.9375,-0.96875 -2.70312,-0.96875 -1.01563,0 -2.04688,0.484375 -1.03125,0.484375 -1.95312,1.203125 V -2.6875 H 548.75 V 0 h -7.5625 v -2.6875 h 2.25 V -13.5 h -2.25 v -2.6875 h 5.15625 v 1.90625 h 0.0312 q 0.51562,-0.453125 1.09375,-0.859375 0.59375,-0.40625 1.23437,-0.703125 0.64063,-0.296875 1.32813,-0.46875 0.70312,-0.171875 1.46875,-0.171875 1.29687,0 2.34375,0.359375 1.04687,0.359375 1.78125,1.09375 0.73437,0.734375 1.125,1.890625 0.40625,1.140625 0.40625,2.703125 v 7.75 h 2.25 V 0 h -7.5625 z" stroke-width="0" stroke-linejoin="miter" stroke-miterlimit="2" fill="#5200bc" stroke="#5200bc" transform="translate(-2.8421709430404007e-13 353.53525947500003) translate(535.7656287500001 61.94921875) scale(0.75) translate(-541.1875 16.484375)"></path>
        <path id="path649295" style="font-style:normal;font-weight:400;font-size:32px;line-height:1;font-family:Arvo;font-variant-ligatures:none;text-align:center;text-anchor:middle" d="m 562.4375,-16.1875 h 5.28125 v 13.5 h 2.4375 V 0 h -7.6875 v -2.6875 h 2.3125 V -13.5 h -2.34375 z m 1.79687,-5.734375 q 0,-0.40625 0.15625,-0.765625 0.17188,-0.375 0.4375,-0.640625 0.28125,-0.28125 0.65625,-0.4375 0.375,-0.171875 0.79688,-0.171875 0.40625,0 0.76562,0.171875 0.375,0.15625 0.64063,0.4375 0.28125,0.265625 0.4375,0.640625 0.17187,0.359375 0.17187,0.765625 0,0.421875 -0.17187,0.796875 -0.15625,0.375 -0.4375,0.671875 -0.26563,0.28125 -0.64063,0.453125 -0.35937,0.15625 -0.76562,0.15625 -0.42188,0 -0.79688,-0.15625 -0.375,-0.171875 -0.65625,-0.453125 -0.26562,-0.296875 -0.4375,-0.671875 -0.15625,-0.375 -0.15625,-0.796875 z" stroke-width="0" stroke-linejoin="miter" stroke-miterlimit="2" fill="#5200bc" stroke="#5200bc" transform="translate(-2.8421709430404007e-13 353.53525947500003) translate(552.4531287500001 56.359375) scale(0.75) translate(-562.4375 23.9375)"></path>
        <path id="path649297" style="font-style:normal;font-weight:400;font-size:32px;line-height:1;font-family:Arvo;font-variant-ligatures:none;text-align:center;text-anchor:middle" d="M 583.46875,-2.6875 H 585.75 v -7.390625 q 0,-1.859375 -0.95313,-2.8125 -0.9375,-0.96875 -2.70312,-0.96875 -1.01563,0 -2.04688,0.484375 -1.03125,0.484375 -1.95312,1.203125 V -2.6875 H 580.375 V 0 h -7.5625 v -2.6875 h 2.25 V -13.5 h -2.25 v -2.6875 h 5.15625 v 1.90625 H 578 q 0.51562,-0.453125 1.09375,-0.859375 0.59375,-0.40625 1.23437,-0.703125 0.64063,-0.296875 1.32813,-0.46875 0.70312,-0.171875 1.46875,-0.171875 1.29687,0 2.34375,0.359375 1.04687,0.359375 1.78125,1.09375 0.73437,0.734375 1.125,1.890625 0.40625,1.140625 0.40625,2.703125 v 7.75 h 2.25 V 0 h -7.5625 z" stroke-width="0" stroke-linejoin="miter" stroke-miterlimit="2" fill="#5200bc" stroke="#5200bc" transform="translate(-2.8421709430404007e-13 353.53525947500003) translate(560.9843787500001 61.94921875) scale(0.75) translate(-572.8125 16.484375)"></path>
        <path id="path649299" style="font-style:normal;font-weight:400;font-size:32px;line-height:1;font-family:Arvo;font-variant-ligatures:none;text-align:center;text-anchor:middle" d="m 606.03125,-1.421875 q -0.79688,0.84375 -1.85938,1.3125 -1.04687,0.46875 -2.39062,0.46875 -1.64063,0 -3.0625,-0.5625 -1.40625,-0.578125 -2.45313,-1.671875 -1.03125,-1.109375 -1.625,-2.703125 Q 594.0625,-6.1875 594.0625,-8.25 q 0,-1.875 0.5625,-3.40625 0.5625,-1.546875 1.59375,-2.625 1.03125,-1.09375 2.48437,-1.6875 1.45313,-0.609375 3.23438,-0.609375 1.21875,0 2.1875,0.28125 0.98437,0.265625 1.90625,0.9375 V -16.1875 h 2.90625 v 15.546875 q 0,3.84375 -1.82813,5.8125 -1.8125,1.96875 -5.65625,1.96875 -0.84375,0 -1.76562,-0.125 -0.92188,-0.125 -1.82813,-0.40625 -0.89062,-0.265625 -1.75,-0.6875 Q 595.26562,5.5 594.54687,4.890625 l 1.5625,-2.359375 q 0.46875,0.40625 1.0625,0.75 0.60938,0.34375 1.29688,0.578125 0.6875,0.25 1.42187,0.390625 0.73438,0.140625 1.46875,0.140625 1.20313,0 2.07813,-0.25 0.89062,-0.25 1.45312,-0.890625 0.57813,-0.625 0.85938,-1.703125 0.28125,-1.078125 0.28125,-2.734375 z m -3.875,-0.75 q 0.71875,0 1.3125,-0.140625 0.59375,-0.140625 1.07812,-0.359375 0.48438,-0.234375 0.84375,-0.53125 0.375,-0.296875 0.64063,-0.625 V -12.6875 q -0.79688,-0.703125 -1.84375,-1.015625 -1.03125,-0.3125 -2.125,-0.3125 -1.03125,0 -1.9375,0.390625 -0.90625,0.375 -1.59375,1.109375 -0.67188,0.734375 -1.0625,1.796875 -0.39063,1.0625 -0.39063,2.4375 0,1.5 0.375,2.640625 0.375,1.140625 1.04688,1.921875 0.67187,0.765625 1.60937,1.15625 0.9375,0.390625 2.04688,0.390625 z" stroke-width="0" stroke-linejoin="miter" stroke-miterlimit="2" fill="#5200bc" stroke="#5200bc" transform="translate(-2.8421709430404007e-13 353.53525947500003) translate(577.6718787500001 61.87890625) scale(0.75) translate(-594.0625 16.578125)"></path>
        <path id="path649303" style="font-style:normal;font-weight:400;font-size:32px;line-height:1;font-family:Arvo;font-variant-ligatures:none;text-align:center;text-anchor:middle" d="m 619.29687,-16.1875 h 5.15625 v 1.34375 q 1.03125,-0.796875 2.25,-1.265625 1.21875,-0.46875 2.51563,-0.46875 1.59375,0 2.92187,0.59375 1.32813,0.59375 2.28125,1.671875 0.96875,1.078125 1.5,2.59375 0.53125,1.5 0.53125,3.328125 0,1.953125 -0.59375,3.5625 -0.59375,1.609375 -1.65625,2.765625 -1.04687,1.140625 -2.5,1.78125 -1.45312,0.640625 -3.1875,0.640625 -1.23437,0 -2.20312,-0.265625 -0.95313,-0.25 -1.82813,-0.65625 v 5.234375 h 2.53125 v 2.6875 h -7.6875 v -2.6875 h 2.21875 V -13.5 h -2.25 z m 9.15625,2.171875 q -1.125,0 -2.17187,0.453125 -1.03125,0.453125 -1.79688,1.25 v 8.765625 q 0.51563,0.53125 1.46875,0.953125 0.96875,0.421875 2.40625,0.421875 1,0 1.92188,-0.390625 0.92187,-0.390625 1.625,-1.15625 0.70312,-0.78125 1.125,-1.921875 0.42187,-1.140625 0.42187,-2.640625 0,-1.375 -0.40625,-2.4375 -0.39062,-1.0625 -1.07812,-1.796875 -0.67188,-0.734375 -1.57813,-1.109375 -0.90625,-0.390625 -1.9375,-0.390625 z" stroke-width="0" stroke-linejoin="miter" stroke-miterlimit="2" fill="#5200bc" stroke="#5200bc" transform="translate(-2.8421709430404007e-13 353.53525947500003) translate(597.3476562500001 61.87890625) scale(0.75) translate(-619.29687 16.578125)"></path>
        <path id="path649305" style="font-style:normal;font-weight:400;font-size:32px;line-height:1;font-family:Arvo;font-variant-ligatures:none;text-align:center;text-anchor:middle" d="m 648.95312,-1.5 q -0.92187,0.859375 -2.04687,1.40625 -1.10938,0.546875 -2.53125,0.546875 -1.1875,0 -2.1875,-0.375 -0.98438,-0.375 -1.70313,-1.015625 -0.71875,-0.65625 -1.125,-1.515625 -0.39062,-0.859375 -0.39062,-1.828125 0,-1.03125 0.29687,-1.828125 0.3125,-0.796875 0.8125,-1.375 0.51563,-0.59375 1.1875,-0.984375 0.6875,-0.40625 1.42188,-0.640625 0.75,-0.25 1.51562,-0.34375 0.78125,-0.109375 1.48438,-0.109375 1.125,0 1.89062,0.078125 0.76563,0.0625 1.39063,0.1875 l 0.0156,-1.328125 q 0,-0.859375 -0.25,-1.484375 -0.25,-0.640625 -0.70312,-1.046875 -0.45313,-0.421875 -1.09375,-0.625 -0.625,-0.203125 -1.40625,-0.203125 -0.73438,0 -1.40625,0.109375 -0.67188,0.09375 -1.26563,0.265625 -0.57812,0.15625 -1.07812,0.375 -0.48438,0.203125 -0.82813,0.4375 L 640,-14.8125 q 0.57812,-0.375 1.26562,-0.6875 0.6875,-0.328125 1.4375,-0.546875 0.76563,-0.234375 1.54688,-0.359375 0.79687,-0.140625 1.5625,-0.140625 1.40625,0 2.53125,0.34375 1.125,0.328125 1.90625,1.03125 0.78125,0.703125 1.20312,1.796875 0.42188,1.078125 0.42188,2.59375 l -0.0156,8.09375 h 1.79688 V 0 h -4.70313 z m -3.9375,-0.484375 q 0.57813,0 1.15625,-0.140625 0.57813,-0.140625 1.09375,-0.375 0.51563,-0.25 0.95313,-0.5625 0.4375,-0.328125 0.73437,-0.671875 l 0.0156,-3.65625 h -3.375 q -0.84375,0 -1.54688,0.1875 -0.6875,0.1875 -1.20312,0.546875 -0.5,0.359375 -0.78125,0.890625 -0.28125,0.53125 -0.28125,1.21875 0,0.640625 0.23437,1.125 0.23438,0.46875 0.65625,0.796875 0.4375,0.3125 1.03125,0.484375 0.59375,0.15625 1.3125,0.15625 z" stroke-width="0" stroke-linejoin="miter" stroke-miterlimit="2" fill="#5200bc" stroke="#5200bc" transform="translate(-2.8421709430404007e-13 353.53525947500003) translate(612.8515662500001 61.90234375) scale(0.75) translate(-638.96875 16.546875)"></path>
        <path id="path649307" style="font-style:normal;font-weight:400;font-size:32px;line-height:1;font-family:Arvo;font-variant-ligatures:none;text-align:center;text-anchor:middle" d="m 668.57812,-12.765625 h -2.96875 v -1 q -0.51562,0 -1.0625,0.203125 -0.53125,0.1875 -1,0.59375 -0.46875,0.390625 -0.82812,1.015625 -0.34375,0.609375 -0.5,1.453125 v 7.8125 h 2.75 V 0 h -8.03125 v -2.6875 h 2.23437 L 659.1875,-13.5 h -2.25 v -2.6875 h 5.17187 v 2.234375 q 0.28125,-0.5 0.625,-0.921875 0.35938,-0.4375 0.78125,-0.75 0.4375,-0.328125 0.95313,-0.5 0.53125,-0.1875 1.14062,-0.1875 0.8125,0 1.53125,0 0.71875,0 1.4375,0.03125 z" stroke-width="0" stroke-linejoin="miter" stroke-miterlimit="2" fill="#5200bc" stroke="#5200bc" transform="translate(-2.8421709430404007e-13 353.53525947500003) translate(627.0781287500001 62.078125) scale(0.75) translate(-656.9375 16.3125)"></path>
        <path id="path649309" style="font-style:normal;font-weight:400;font-size:32px;line-height:1;font-family:Arvo;font-variant-ligatures:none;text-align:center;text-anchor:middle" d="m 676.625,-16.1875 h 3.79687 v 2.359375 h -3.82812 l -0.0469,9.34375 q 0,0.953125 0.21875,1.546875 0.21875,0.59375 0.70313,0.828125 0.48437,0.21875 1.09375,0.21875 0.65625,0 1.15625,-0.109375 0.5,-0.125 1.09375,-0.40625 l 0.67187,1.953125 q -0.75,0.390625 -1.57812,0.609375 -0.82813,0.234375 -1.95313,0.234375 -1.0625,0 -1.85937,-0.265625 -0.78125,-0.25 -1.32813,-0.859375 -0.53125,-0.609375 -0.79687,-1.625 -0.26563,-1.03125 -0.26563,-2.5625 l 0.0469,-8.90625 h -2.57813 V -16.1875 h 2.60938 v -3.875 l 2.84375,-1.34375 z" stroke-width="0" stroke-linejoin="miter" stroke-miterlimit="2" fill="#5200bc" stroke="#5200bc" transform="translate(-2.8421709430404007e-13 353.53525947500003) translate(638.5039062500001 58.2578125) scale(0.75) translate(-671.17187 21.40625)"></path>
        <path id="path649311" style="font-style:normal;font-weight:400;font-size:32px;line-height:1;font-family:Arvo;font-variant-ligatures:none;text-align:center;text-anchor:middle" d="m 694.53125,-2.6875 h 2.28125 v -7.390625 q 0,-1.859375 -0.95313,-2.8125 -0.9375,-0.96875 -2.70312,-0.96875 -1.01563,0 -2.04688,0.484375 -1.03125,0.484375 -1.95312,1.203125 V -2.6875 h 2.28125 V 0 h -7.5625 v -2.6875 h 2.25 V -13.5 h -2.25 v -2.6875 h 5.15625 v 1.90625 h 0.0312 q 0.51562,-0.453125 1.09375,-0.859375 0.59375,-0.40625 1.23437,-0.703125 0.64063,-0.296875 1.32813,-0.46875 0.70312,-0.171875 1.46875,-0.171875 1.29687,0 2.34375,0.359375 1.04687,0.359375 1.78125,1.09375 0.73437,0.734375 1.125,1.890625 0.40625,1.140625 0.40625,2.703125 v 7.75 h 2.25 V 0 h -7.5625 z" stroke-width="0" stroke-linejoin="miter" stroke-miterlimit="2" fill="#5200bc" stroke="#5200bc" transform="translate(-2.8421709430404007e-13 353.53525947500003) translate(648.7812537500001 61.94921875) scale(0.75) translate(-683.875 16.484375)"></path>
        <path id="path649313" style="font-style:normal;font-weight:400;font-size:32px;line-height:1;font-family:Arvo;font-variant-ligatures:none;text-align:center;text-anchor:middle" d="m 708,-7.71875 q 0,0.6875 0.0937,1.265625 0.10937,0.5625 0.29687,1.078125 0.57813,1.5625 1.84375,2.359375 1.28125,0.78125 2.89063,0.78125 1.26562,0 2.45312,-0.34375 1.20313,-0.359375 2.51563,-1.109375 l 1.17187,1.984375 q -1.59375,1.09375 -3.20312,1.625 -1.60938,0.53125 -3.34375,0.53125 -1.64063,0 -3.04688,-0.546875 -1.39062,-0.546875 -2.40625,-1.625 -1,-1.078125 -1.57812,-2.6875 -0.5625,-1.609375 -0.5625,-3.75 0,-1.734375 0.48437,-3.265625 0.48438,-1.546875 1.4375,-2.6875 0.96875,-1.15625 2.39063,-1.828125 1.42187,-0.671875 3.3125,-0.671875 1.82812,0 3.04687,0.5625 1.23438,0.546875 2,1.46875 0.78125,0.90625 1.17188,2.078125 0.40625,1.171875 0.5625,2.390625 0.0781,0.59375 0.0937,1.203125 0.0312,0.609375 0.0312,1.1875 z m 4.54687,-6.453125 q -1.01562,0 -1.78125,0.296875 -0.75,0.28125 -1.28125,0.828125 -0.53125,0.53125 -0.85937,1.3125 -0.3125,0.78125 -0.46875,1.75 h 8.39062 q -0.0625,-0.90625 -0.29687,-1.671875 -0.21875,-0.765625 -0.6875,-1.328125 -0.46875,-0.5625 -1.20313,-0.875 -0.73437,-0.3125 -1.8125,-0.3125 z" stroke-width="0" stroke-linejoin="miter" stroke-miterlimit="2" fill="#5200bc" stroke="#5200bc" transform="translate(-2.8421709430404007e-13 353.53525947500003) translate(665.4687162500002 61.85546875) scale(0.75) translate(-705.12495 16.609375)"></path>
        <path id="path649315" style="font-style:normal;font-weight:400;font-size:32px;line-height:1;font-family:Arvo;font-variant-ligatures:none;text-align:center;text-anchor:middle" d="m 735.26562,-12.765625 h -2.96875 v -1 q -0.51562,0 -1.0625,0.203125 -0.53125,0.1875 -1,0.59375 -0.46875,0.390625 -0.82812,1.015625 -0.34375,0.609375 -0.5,1.453125 v 7.8125 h 2.75 V 0 H 723.625 v -2.6875 h 2.23437 L 725.875,-13.5 h -2.25 v -2.6875 h 5.17187 v 2.234375 q 0.28125,-0.5 0.625,-0.921875 0.35938,-0.4375 0.78125,-0.75 0.4375,-0.328125 0.95313,-0.5 0.53125,-0.1875 1.14062,-0.1875 0.8125,0 1.53125,0 0.71875,0 1.4375,0.03125 z" stroke-width="0" stroke-linejoin="miter" stroke-miterlimit="2" fill="#5200bc" stroke="#5200bc" transform="translate(-2.8421709430404007e-13 353.53525947500003) translate(680.0937537500001 62.078125) scale(0.75) translate(-723.625 16.3125)"></path>
      </g>
      <g id="title" style="font-style:normal;font-weight:normal;font-size:72px;line-height:1;font-family:'Brandmark Sans 1 Color';font-variant-ligatures:normal;text-align:center;text-anchor:middle" transform="translate(0 0)">
        <g id="path649318" aria-label="K" transform="translate(0 289.99485166500006) translate(288.9091474999999 45.520029) scale(1.11) translate(-336.1175 47.952)">
          <path class="c1" d="M120.54541,124.00195h-14.0166l-13.15332-17.37744l-2.54395,3.02441v14.35303H79.45459V75.99805h11.37695 v18.14551l14.35254-18.14551h14.06543l-19.05762,22.51367L120.54541,124.00195z" transform="translate(256.66291 -123.95005)" stroke-width="0" stroke-linejoin="miter" stroke-miterlimit="2" fill="#5200bc" stroke="#5200bc"></path>
        </g>
        <g id="path649320" aria-label="E" transform="translate(0 289.99485166500006) translate(349.1092981999999 45.520029) scale(1.11) translate(-384.35187 47.952)">
          <path class="c1" d="M83.00684,124.00195h33.98633v-10.12891H83.00684V124.00195z M83.00684,105.28027h33.98633V95.15137 H83.00684V105.28027z M83.00684,75.99805v10.12891h33.98633V75.99805H83.00684z" transform="translate(301.34503 -123.95005)" stroke-width="0" stroke-linejoin="miter" stroke-miterlimit="2" fill="#5200bc" stroke="#5200bc"></path>
        </g>
        <g id="path649322" aria-label="^D" transform="translate(0 289.99485166500006) translate(401.5047724999999 45.520029) scale(1.11) translate(-425.555 47.952)">
          <path class="c1" d="M122.20151,100c0,9.50488-5.52051,17.71387-13.48926,21.60254 c-3.16797,1.53516-6.7207,2.39941-10.5127,2.39941H77.79819V95.15137h11.37695v17.80957h9.2168 c7.05664-0.0957,12.76855-5.85645,12.76855-12.96094c0-7.15283-5.80859-12.96094-12.96094-12.96094H77.79819V75.99805h20.44922 c3.74414,0,7.34473,0.86377,10.51367,2.3999C116.72885,82.33447,122.24936,90.49512,122.20151,100z" transform="translate(347.75681 -123.95005)" stroke-width="0" stroke-linejoin="miter" stroke-miterlimit="2" fill="#5200bc" stroke="#5200bc"></path>
        </g>
        <g id="path649324" aria-label="I" transform="translate(0 289.99485166500006) translate(465.4511731999999 45.520029) scale(1.11) translate(-477.16437 47.952)">
          <path class="c1" d="M94.31152,75.99805h11.37695v48.00391H94.31152V75.99805z" transform="translate(382.85285 -123.95005)" stroke-width="0" stroke-linejoin="miter" stroke-miterlimit="2" fill="#5200bc" stroke="#5200bc"></path>
        </g>
        <g id="path649326" aria-label="G" transform="translate(0 289.99485166500006) translate(492.7205653999999 44.63785761) scale(1.11) translate(-495.73139 48.746749)">
          <path class="c1" d="M98.97184,95.92001h24.0498v16.70557c-0.52734,0.95996-1.19922,1.87207-1.87207,2.73633 c-5.56836,7.05713-14.68848,10.60889-23.56934,9.16846c-8.59277-1.43945-16.03418-7.44043-19.1543-15.55322 c-3.16797-8.2085-1.67969-17.76172,3.88867-24.62598c5.4248-6.7207,14.11328-10.12891,22.6582-8.97705 c7.68066,1.05615,14.35254,5.7124,18.24121,12.38525l-10.27246,5.04053c-2.54492-4.08057-7.24902-6.48096-12.0498-6.24072 c-4.17578,0.19189-8.1123,2.44824-10.41602,5.90479c-2.68848,3.98389-3.02441,9.26465-0.81641,13.53711 c1.96777,3.84033,5.76074,6.57617,10.0332,7.20068c4.41602,0.67188,8.97656-1.0083,11.95215-4.36865v-2.92822H98.97184V95.92001z" transform="translate(418.945433 -123.900071)" stroke-width="0" stroke-linejoin="miter" stroke-miterlimit="2" fill="#5200bc" stroke="#5200bc"></path>
        </g>
        <g id="path649328" aria-label="I" transform="translate(0 289.99485166500006) translate(558.8472724999998 45.520029) scale(1.11) translate(-549.305 47.952)">
          <path class="c1" d="M94.31152,75.99805h11.37695v48.00391H94.31152V75.99805z" transform="translate(454.99348 -123.95005)" stroke-width="0" stroke-linejoin="miter" stroke-miterlimit="2" fill="#5200bc" stroke="#5200bc"></path>
        </g>
        <g id="path649330" aria-label="T" transform="translate(0 289.99485166500006) translate(586.1116474999998 45.520029) scale(1.11) translate(-567.8675 47.952)">
          <path class="c1" d="M119.15356,75.9978v10.12891h-13.39258v37.87549h-11.4248V86.12671H80.84644V75.9978H119.15356z" transform="translate(487.02106 -123.9498)" stroke-width="0" stroke-linejoin="miter" stroke-miterlimit="2" fill="#5200bc" stroke="#5200bc"></path>
        </g>
        <g id="path649332" aria-label="A" transform="translate(0 289.99485166500006) translate(631.1707099999998 45.520029) scale(1.11) translate(-602.46125 47.952)">
          <polygon class="c1" points="106.43262,75.9978 93.61523,75.9978 75.03809,124.0022 87.95117,124.0022 100.04785,89.58276 106.09747,106.8645 106.09747,106.8645 112.09668,124.0022 124.96191,124.0022 " transform="translate(527.42316 -123.9498)" stroke-width="0" stroke-linejoin="miter" stroke-miterlimit="2" fill="#5200bc" stroke="#5200bc"></polygon>
          <polygon class="c3" points="100.03257,124.0022 92.40832,112.19891 107.59168,112.19891 " transform="translate(527.42316 -123.9498)" stroke-width="0" stroke-linejoin="miter" stroke-miterlimit="2" fill="#e89336" stroke="#e89336"></polygon>
        </g>
        <g id="path649334" aria-label="L" transform="translate(0 289.99485166500006) translate(701.2047724999998 45.520029) scale(1.11) translate(-659.555 47.952)">
          <path class="c1" d="M115.26514,113.87305v10.12891H84.73486V75.99805h11.37695v37.875H115.26514z" transform="translate(574.82014 -123.95005)" stroke-width="0" stroke-linejoin="miter" stroke-miterlimit="2" fill="#5200bc" stroke="#5200bc"></path>
        </g>
      </g>
      <image xlink:href="" id="icon" x="0" y="0" style="display: none;"></image>
    </g>
  </g>
</svg>